<svg id="factory_icon" xmlns="http://www.w3.org/2000/svg" width="24" height="24" viewBox="0 0 24 24">
  <path id="Path_16677" data-name="Path 16677" d="M0,0H24V24H0Z" fill="none"/>
  <path id="Path_16678" data-name="Path 16678" d="M4,21A44.768,44.768,0,0,0,6,9h6a44.767,44.767,0,0,0,2,12" fill="none" stroke="#2962ff" stroke-linecap="round" stroke-linejoin="round" stroke-width="1.5"/>
  <path id="Path_16679" data-name="Path 16679" d="M12.5,13H17a22.254,22.254,0,0,0,2,8" fill="none" stroke="#2962ff" stroke-linecap="round" stroke-linejoin="round" stroke-width="1.5"/>
  <path id="Path_16680" data-name="Path 16680" d="M9,5a2.5,2.5,0,0,1,4,0,2.5,2.5,0,0,0,4,0,2.5,2.5,0,0,1,4,0" fill="none" stroke="#2962ff" stroke-linecap="round" stroke-linejoin="round" stroke-width="1.5"/>
  <path id="Path_16681" data-name="Path 16681" d="M3,21H22" fill="none" stroke="#2962ff" stroke-linecap="round" stroke-linejoin="round" stroke-width="1.5"/>
</svg>
