<svg xmlns="http://www.w3.org/2000/svg" width="208.812" height="56" viewBox="0 0 208.812 56">
  <g id="logo" transform="translate(-927.999 -58)">
    <path id="Path_4189" data-name="Path 4189" d="M235.811,31.8l.32-.295c2.03-2.173,4.051-4.346,6.089-6.51a.91.91,0,0,1,.522-.3h4.211a2.753,2.753,0,0,1-.211.312c-1.937,1.979-3.874,3.967-5.828,5.937a.548.548,0,0,0-.076.842c2.055,2.922,4.085,5.9,6.123,8.8l.286.438h-3.84a.707.707,0,0,1-.657-.345c-1.474-2.131-2.965-4.211-4.447-6.375-.076-.109-.168-.219-.328-.43l-.935,1.044a6.049,6.049,0,0,1-.792.842,1.685,1.685,0,0,0-.606,1.516c.042,1.112,0,2.223,0,3.369,0,.337-.1.48-.455.472H232.4c-.337,0-.48-.1-.48-.455V18.9c0-.345.135-.438.455-.43h2.746c.413,0,.531.118.531.522V31.785Z" transform="translate(889.563 53.875)" fill="#131722"/>
    <path id="Path_4190" data-name="Path 4190" d="M198.689,39.873c-.413.438-.792.9-1.238,1.3-2.35,2.139-7.142,1.853-8.826-1.4a7.083,7.083,0,0,1-.775-3.369V26.347c0-.505,0-.547.564-.547h2.619c.4,0,.539.109.539.522v8.666a5.382,5.382,0,0,0,.438,2.3,3.175,3.175,0,0,0,3.234,1.836,3.554,3.554,0,0,0,3.571-3.832V26.457c0-.623,0-.648.674-.648h2.451c.581,0,.59,0,.59.59V41.776c0,.3-.109.43-.421.421h-2.922c-.3,0-.387-.118-.379-.4V39.94Z" transform="translate(896.521 52.726)" fill="#131722"/>
    <path id="Path_4191" data-name="Path 4191" d="M157.144,32.108V23.576c0-.564,0-.6-.606-.6h-5.794c-.337,0-.472-.084-.463-.446V19.946c0-.312.067-.446.421-.446h16.734c.337,0,.446.109.438.438v2.577c0,.354-.118.463-.463.463h-5.744c-.691,0-.733.042-.733.75V40.5c0,.724,0,.724-.716.724h-2.451c-.64,0-.64,0-.64-.665Z" transform="translate(902.449 53.713)" fill="#131722"/>
    <path id="Path_4192" data-name="Path 4192" d="M33.516,45.954a1.622,1.622,0,0,1-.842,1.343,1.412,1.412,0,0,1-1.583-.135,3.037,3.037,0,0,1-.345-.312L2.768,18.838a1.581,1.581,0,0,1-.6-1.292,1.41,1.41,0,0,1,.842-1.275,1.42,1.42,0,0,1,1.541.152c.16.135.312.287.463.431L32.422,44.332a4.37,4.37,0,0,1,.615.633A8.226,8.226,0,0,1,33.516,45.954Z" transform="translate(925.83 54.211)" fill="#eb2053"/>
    <path id="Path_4193" data-name="Path 4193" d="M209.85,34.48c.109-3.141,1.1-5.634,3.5-7.445,2.863-2.164,8.085-2.442,11.193.842.253.27.3.463,0,.741-.581.59-1.145,1.2-1.684,1.828-.211.227-.362.236-.59,0a5.449,5.449,0,0,0-2.922-1.684,4.758,4.758,0,0,0-5.66,3.958,5.7,5.7,0,0,0,1.12,4.817,4.8,4.8,0,0,0,6.039,1.129A9.264,9.264,0,0,0,222.4,37.52c.253-.211.4-.269.657,0,.522.539,1.053,1.061,1.609,1.558.328.295.244.48,0,.75a8.632,8.632,0,0,1-14.62-3.908A10.946,10.946,0,0,1,209.85,34.48Z" transform="translate(893.046 52.787)" fill="#131722"/>
    <path id="Path_4194" data-name="Path 4194" d="M82.813,29.121a5.786,5.786,0,0,1,5.356-3.066,5.634,5.634,0,0,1,5.146,3.369c.489-.573.91-1.162,1.415-1.684a6.283,6.283,0,0,1,9.264.707,7.058,7.058,0,0,1,1.162,4.085c0,3.057,0,6.106,0,9.163,0,.539,0,.573-.581.573H104.2c-.387,0-.556-.211-.547-.59v-9.34a5.213,5.213,0,0,0-1.592-3.832,4.935,4.935,0,0,0-7.437,1.558,6.561,6.561,0,0,0-.682,3.015v8.616c0,.312,0,.6-.43.6-.842,0-1.011-.067-1.011-.6V36.641c0-1.533,0-3.074-.067-4.6a4.548,4.548,0,0,0-2.661-4.211,4.952,4.952,0,0,0-6.535,2.8,6.678,6.678,0,0,0-.43,2.223c-.076,2.577-.076,5.18-.076,7.782v.842c0,.3,0,.682-.152.716a3.057,3.057,0,0,1-1.078.051c-.076,0-.168-.168-.2-.278a1.348,1.348,0,0,1,0-.413V27.1c0-.556.067-.64.48-.64.842,0,.96.067.969.632s0,1.07,0,1.609v.4Z" transform="translate(913.343 52.69)" fill="#131722"/>
    <path id="Path_4195" data-name="Path 4195" d="M176.669,29.113c.194-.32.4-.648.6-.96a5.525,5.525,0,0,1,4.4-2.687c.648-.059.682,0,.682.6v2.914c0,.286-.067.43-.4.438a5.188,5.188,0,0,0-5.281,5.053c-.1,1.331-.084,2.67-.1,4.009v3.251c0,.3-.093.43-.413.421H173.19c-.278,0-.379-.109-.371-.371s0-.623,0-.926V26.376c0-.606,0-.6.606-.6h2.661c.345,0,.472.1.463.455v2.855Z" transform="translate(898.893 52.781)" fill="#131722"/>
    <path id="Path_4196" data-name="Path 4196" d="M56.34,38.031l1-1.162a25.533,25.533,0,0,0,2.527,1.777,9.475,9.475,0,0,0,7.925.935,4.135,4.135,0,0,0,2.88-4.792,3.579,3.579,0,0,0-2.257-2.645,20.761,20.761,0,0,0-4.4-1.28A17.534,17.534,0,0,1,60.029,29.5c-3.5-1.684-3.563-6.434-.918-8.633a7.58,7.58,0,0,1,4.5-1.684,10.873,10.873,0,0,1,7.7,2.324l.337.286c-.253.312-.505.6-.716.91s-.362.27-.606.059A8.5,8.5,0,0,0,67.2,21.027a8.313,8.313,0,0,0-5.744.084A3.925,3.925,0,0,0,58.8,24.918a3.453,3.453,0,0,0,1.844,3.108,16.625,16.625,0,0,0,4.674,1.508,17.922,17.922,0,0,1,4.211,1.4c3.849,1.912,3.52,7.209.244,9.264a8.725,8.725,0,0,1-4.834,1.263,12.288,12.288,0,0,1-8.3-3.242A3.17,3.17,0,0,0,56.34,38.031Z" transform="translate(917.279 53.77)" fill="#131722"/>
    <path id="Path_4197" data-name="Path 4197" d="M19.621,64.317a1.583,1.583,0,0,1-1.179-.564l-3.436-3.436L2.819,48.13a1.684,1.684,0,0,1-.581-1.777,1.491,1.491,0,0,1,2.249-.741A3.2,3.2,0,0,1,4.933,46L20.556,61.588a1.465,1.465,0,0,1,.463,1.853,1.423,1.423,0,0,1-1.4.876Z" transform="translate(925.829 49.681)" fill="#eb2053"/>
    <path id="Path_4198" data-name="Path 4198" d="M35.732,18.939a1.406,1.406,0,0,1-.893,1.4,1.373,1.373,0,0,1-1.541-.227c-.27-.227-.514-.48-.758-.724L17.482,4.327A1.811,1.811,0,0,1,16.8,2.979a1.415,1.415,0,0,1,.842-1.322,1.348,1.348,0,0,1,1.508.118,3.621,3.621,0,0,1,.514.438L35.076,17.625a1.861,1.861,0,0,1,.657,1.314Z" transform="translate(923.52 56.52)" fill="#eb2053"/>
    <path id="Path_4199" data-name="Path 4199" d="M126.835,39.764l-.682.724a7.647,7.647,0,0,1-9.643.775,4.7,4.7,0,0,1,.328-7.58,8.313,8.313,0,0,1,4.051-1.179,19.093,19.093,0,0,1,5.525.522c.472.109.514.084.514-.4a5.205,5.205,0,0,0-.842-3.2,4.556,4.556,0,0,0-3.369-1.76,9.7,9.7,0,0,0-5.365.893c-.194.093-.6.168-.64.1a4.533,4.533,0,0,1-.371-1.044c0-.067.168-.219.286-.27a11.226,11.226,0,0,1,7.647-.842,5.23,5.23,0,0,1,4.068,5.255V41.811c0,.337-.118.463-.446.43h-.211c-.691,0-.775-.093-.783-.775V39.781Zm-5.424,1.524a6.94,6.94,0,0,0,3.807-1.423,3.849,3.849,0,0,0,1.625-2.527c.118-.758.059-1.541.126-2.308a.539.539,0,0,0-.5-.665,18.873,18.873,0,0,0-5.946-.514,7.125,7.125,0,0,0-2.2.6,3.183,3.183,0,0,0-2.013,3.057,3.226,3.226,0,0,0,1.853,3.074A6.485,6.485,0,0,0,121.411,41.289Z" transform="translate(908.061 52.667)" fill="#131722"/>
    <path id="Path_4200" data-name="Path 4200" d="M17.91,18.922a4.691,4.691,0,0,1-.985-.564c-2.324-2.291-4.632-4.607-6.94-6.923a1.491,1.491,0,0,1-.067-2.181A1.474,1.474,0,0,1,12.1,9.3c1.095,1.07,2.173,2.164,3.259,3.251l3.689,3.714a1.406,1.406,0,0,1,.337,1.684,1.449,1.449,0,0,1-1.4.9Z" transform="translate(924.676 55.366)" fill="#eb2053"/>
    <path id="Path_4201" data-name="Path 4201" d="M139.046,30.667l.387-.623a7.487,7.487,0,0,1,4.464-3.571,13.722,13.722,0,0,1,1.684-.253c.278,0,.413.084.4.387s0,.59,0,.884-.152.4-.421.421a6.535,6.535,0,0,0-6.359,5.483,13.87,13.87,0,0,0-.253,2.644v5.744c0,.371-.1.522-.505.514-1.019,0-1.011,0-1.011-1.12V27.146a1.412,1.412,0,0,1,0-.379.376.376,0,0,1,.236-.295,5.322,5.322,0,0,1,.969,0c.328,0,.32.3.312.547v3.647Z" transform="translate(904.48 52.66)" fill="#131722"/>
    <path id="Path_4202" data-name="Path 4202" d="M28.656,58.684a1.482,1.482,0,0,1-1.137-.472c-2.3-2.3-4.6-4.607-6.906-6.9a1.524,1.524,0,0,1-.455-1.575A1.44,1.44,0,0,1,21.329,48.7a1.5,1.5,0,0,1,1.432.539l5.011,5.053c.657.657,1.339,1.3,1.962,1.988a1.457,1.457,0,0,1-.707,2.392A2.617,2.617,0,0,1,28.656,58.684Z" transform="translate(923.003 49.157)" fill="#eb2053"/>
  </g>
</svg>
