<svg id="not_verified_icon" xmlns="http://www.w3.org/2000/svg" width="16" height="16" viewBox="0 0 16 16">
  <path id="Path_16577" data-name="Path 16577" d="M7,11a1,1,0,1,1,1,1A1,1,0,0,1,7,11Z" fill="#e24d65"/>
  <path id="Path_16578" data-name="Path 16578" d="M7.1,5A.9.9,0,1,1,8.9,5L8.55,8.5a.552.552,0,0,1-1.1,0Z" fill="#e24d65"/>
  <path id="Path_16579" data-name="Path 16579" d="M10.273,2.513l-.921-.943.715-.7.622.637.89-.011A2.89,2.89,0,0,1,14.5,4.421l-.011.89.637.622a2.889,2.889,0,0,1,0,4.135l-.637.622.011.89A2.89,2.89,0,0,1,11.579,14.5l-.89-.011-.622.637a2.889,2.889,0,0,1-4.135,0l-.622-.637-.89.011A2.89,2.89,0,0,1,1.5,11.579l.011-.89-.637-.622a2.89,2.89,0,0,1,0-4.135l.637-.622L1.5,4.421A2.89,2.89,0,0,1,4.421,1.5l.89.011L5.933.871a2.89,2.89,0,0,1,4.135,0l-.715.7a1.89,1.89,0,0,0-2.7,0l-.921.943L4.409,2.5A1.89,1.89,0,0,0,2.5,4.409l.016,1.318-.943.921a1.89,1.89,0,0,0,0,2.7l.943.921L2.5,11.591A1.889,1.889,0,0,0,4.409,13.5l1.318-.016.921.943a1.89,1.89,0,0,0,2.7,0l.921-.943,1.318.016A1.889,1.889,0,0,0,13.5,11.591l-.016-1.318.943-.921a1.89,1.89,0,0,0,0-2.7l-.943-.921L13.5,4.409A1.889,1.889,0,0,0,11.591,2.5Z" fill="#e24d65"/>
</svg>
