<svg xmlns="http://www.w3.org/2000/svg" width="320" height="32" viewBox="0 0 320 32">
  <g id="powered_by_smartruck_svg_" data-name="powered_by_smartruck_svg " transform="translate(-20 -710)">
    <rect id="Rectangle_4461" data-name="Rectangle 4461" width="320" height="32" transform="translate(20 710)" fill="#fcfcfc"/>
    <g id="Group_19975" data-name="Group 19975" transform="translate(-13 -1)">
      <text id="Powered_by" data-name="Powered by" transform="translate(120 730)" fill="#71747a" font-size="12" font-family="Inter-Regular, Inter" letter-spacing="0em"><tspan x="0" y="0">powered by</tspan></text>
      <g id="logo" transform="translate(-736.999 659.023)">
        <path id="Path_4189" data-name="Path 4189" d="M233.31,23.231l.114-.105c.725-.776,1.447-1.552,2.175-2.325a.325.325,0,0,1,.186-.108h1.5a.982.982,0,0,1-.075.111c-.692.707-1.383,1.417-2.081,2.12a.2.2,0,0,0-.027.3c.734,1.044,1.459,2.105,2.187,3.143l.1.156h-1.371a.253.253,0,0,1-.235-.123c-.526-.761-1.059-1.5-1.588-2.277-.027-.039-.06-.078-.117-.153l-.334.373a2.161,2.161,0,0,1-.283.3.6.6,0,0,0-.217.541c.015.4,0,.794,0,1.2,0,.12-.036.171-.162.168h-1c-.12,0-.171-.036-.171-.162V18.623c0-.123.048-.156.162-.153h.981c.147,0,.189.042.189.186v4.569Z" transform="translate(765.181 44.654)" fill="#131722"/>
        <path id="Path_4190" data-name="Path 4190" d="M191.72,30.826c-.147.156-.283.322-.442.463a2.115,2.115,0,0,1-3.152-.5,2.529,2.529,0,0,1-.277-1.2V26c0-.18,0-.2.2-.2h.935c.141,0,.192.039.192.186v3.095a1.923,1.923,0,0,0,.156.821,1.134,1.134,0,0,0,1.155.656,1.269,1.269,0,0,0,1.275-1.368V26.035c0-.223,0-.232.241-.232h.875c.208,0,.211,0,.211.211v5.492c0,.108-.039.153-.15.15H191.9c-.108,0-.138-.042-.135-.141V30.85Z" transform="translate(795.997 39.531)" fill="#131722"/>
        <path id="Path_4191" data-name="Path 4191" d="M152.731,24V20.956c0-.2,0-.214-.217-.214h-2.069c-.12,0-.168-.03-.165-.159v-.923c0-.111.024-.159.15-.159h5.976c.12,0,.159.039.156.156v.92c0,.126-.042.165-.165.165h-2.051c-.247,0-.262.015-.262.268V27c0,.259,0,.259-.256.259h-.875c-.229,0-.229,0-.229-.238Z" transform="translate(822.266 43.933)" fill="#131722"/>
        <path id="Path_4192" data-name="Path 4192" d="M13.364,26.77a.579.579,0,0,1-.3.48A.5.5,0,0,1,12.5,27.2a1.084,1.084,0,0,1-.123-.112l-9.991-10a.565.565,0,0,1-.214-.461.5.5,0,0,1,.3-.455.507.507,0,0,1,.55.054c.057.048.111.1.165.154l9.787,9.815a1.561,1.561,0,0,1,.22.226A2.938,2.938,0,0,1,13.364,26.77Z" transform="translate(925.83 46.289)" fill="#eb2053"/>
        <path id="Path_4193" data-name="Path 4193" d="M209.85,28.647a3.235,3.235,0,0,1,1.248-2.659,3.128,3.128,0,0,1,4,.3c.09.1.108.165,0,.265-.208.211-.409.43-.6.653-.075.081-.129.084-.211,0a1.946,1.946,0,0,0-1.044-.6,1.7,1.7,0,0,0-2.021,1.414,2.036,2.036,0,0,0,.4,1.72,1.714,1.714,0,0,0,2.156.4,3.309,3.309,0,0,0,.556-.409c.09-.075.144-.1.235,0,.186.192.376.379.574.556.117.105.087.171,0,.268a3.083,3.083,0,0,1-5.221-1.4A3.912,3.912,0,0,1,209.85,28.647Z" transform="translate(780.613 39.805)" fill="#131722"/>
        <path id="Path_4194" data-name="Path 4194" d="M81.828,27.132a2.066,2.066,0,0,1,1.913-1.095,2.012,2.012,0,0,1,1.838,1.2c.174-.2.325-.415.505-.6a2.244,2.244,0,0,1,3.308.253,2.52,2.52,0,0,1,.415,1.459c0,1.092,0,2.181,0,3.272,0,.192,0,.2-.208.2h-.135c-.138,0-.2-.075-.2-.211V28.281a1.862,1.862,0,0,0-.568-1.368,1.762,1.762,0,0,0-2.656.556,2.343,2.343,0,0,0-.244,1.077v3.077c0,.111,0,.214-.153.214-.3,0-.361-.024-.361-.214v-1.8c0-.547,0-1.1-.024-1.642a1.624,1.624,0,0,0-.95-1.5,1.768,1.768,0,0,0-2.334,1,2.385,2.385,0,0,0-.153.794c-.027.92-.027,1.85-.027,2.779v.3c0,.108,0,.244-.054.256a1.092,1.092,0,0,1-.385.018c-.027,0-.06-.06-.072-.1a.482.482,0,0,1,0-.147V26.41c0-.2.024-.229.171-.229.3,0,.343.024.346.226s0,.382,0,.574v.141Z" transform="translate(870.513 39.371)" fill="#131722"/>
        <path id="Path_4195" data-name="Path 4195" d="M174.194,26.757c.069-.114.141-.232.214-.343a1.973,1.973,0,0,1,1.57-.959c.232-.021.244,0,.244.214v1.041c0,.1-.024.153-.144.156a1.853,1.853,0,0,0-1.886,1.8c-.036.475-.03.953-.036,1.432v1.161c0,.108-.033.153-.147.15h-1.056c-.1,0-.135-.039-.132-.132s0-.223,0-.331V25.78c0-.217,0-.214.217-.214h.95c.123,0,.168.036.165.162v1.02Z" transform="translate(806.506 39.776)" fill="#131722"/>
        <path id="Path_4196" data-name="Path 4196" d="M56.34,25.888l.358-.415a9.118,9.118,0,0,0,.9.635,3.384,3.384,0,0,0,2.83.334,1.477,1.477,0,0,0,1.029-1.711,1.278,1.278,0,0,0-.806-.944,7.414,7.414,0,0,0-1.573-.457,6.262,6.262,0,0,1-1.423-.487,1.867,1.867,0,0,1-.328-3.083,2.707,2.707,0,0,1,1.606-.6,3.883,3.883,0,0,1,2.749.83l.12.1c-.09.111-.18.214-.256.325s-.129.1-.217.021a3.035,3.035,0,0,0-1.113-.62,2.969,2.969,0,0,0-2.051.03,1.4,1.4,0,0,0-.95,1.359,1.233,1.233,0,0,0,.659,1.11,5.937,5.937,0,0,0,1.669.538,6.4,6.4,0,0,1,1.5.5,1.912,1.912,0,0,1,.087,3.308,3.116,3.116,0,0,1-1.726.451,4.388,4.388,0,0,1-2.963-1.158A1.132,1.132,0,0,0,56.34,25.888Z" transform="translate(887.952 44.183)" fill="#131722"/>
        <path id="Path_4197" data-name="Path 4197" d="M8.406,52.124a.565.565,0,0,1-.421-.2L6.758,50.7,2.406,46.344a.6.6,0,0,1-.208-.635.532.532,0,0,1,.8-.265,1.143,1.143,0,0,1,.159.138L8.74,51.15a.523.523,0,0,1,.165.662.508.508,0,0,1-.5.313Z" transform="translate(925.825 25.875)" fill="#eb2053"/>
        <path id="Path_4198" data-name="Path 4198" d="M23.561,7.715a.5.5,0,0,1-.319.5.49.49,0,0,1-.55-.081c-.1-.081-.183-.171-.271-.259L17.043,2.5a.647.647,0,0,1-.244-.481.505.505,0,0,1,.3-.472.481.481,0,0,1,.538.042,1.293,1.293,0,0,1,.183.156l5.5,5.5a.665.665,0,0,1,.235.469Z" transform="translate(915.599 56.52)" fill="#eb2053"/>
        <path id="Path_4199" data-name="Path 4199" d="M119.063,31.03l-.244.259a2.731,2.731,0,0,1-3.444.277,1.678,1.678,0,0,1,.117-2.707,2.969,2.969,0,0,1,1.447-.421,6.818,6.818,0,0,1,1.973.186c.168.039.183.03.183-.144a1.859,1.859,0,0,0-.3-1.143,1.627,1.627,0,0,0-1.2-.629,3.465,3.465,0,0,0-1.916.319c-.069.033-.214.06-.229.036a1.619,1.619,0,0,1-.132-.373c0-.024.06-.078.1-.1a4.009,4.009,0,0,1,2.731-.3A1.868,1.868,0,0,1,119.6,28.17v3.591c0,.12-.042.165-.159.153h-.075c-.247,0-.277-.033-.28-.277v-.6Zm-1.937.544a2.478,2.478,0,0,0,1.359-.508,1.374,1.374,0,0,0,.58-.9c.042-.271.021-.55.045-.824a.192.192,0,0,0-.177-.238,6.74,6.74,0,0,0-2.123-.183,2.544,2.544,0,0,0-.785.214,1.137,1.137,0,0,0-.719,1.092,1.152,1.152,0,0,0,.662,1.1A2.316,2.316,0,0,0,117.126,31.574Z" transform="translate(847.114 39.267)" fill="#131722"/>
        <path id="Path_4200" data-name="Path 4200" d="M12.487,12.409a1.675,1.675,0,0,1-.352-.2c-.83-.818-1.654-1.645-2.478-2.472a.532.532,0,0,1-.024-.779.526.526,0,0,1,.779.015c.391.382.776.773,1.164,1.161l1.317,1.326a.5.5,0,0,1,.12.6.517.517,0,0,1-.5.322Z" transform="translate(920.721 51.407)" fill="#eb2053"/>
        <path id="Path_4201" data-name="Path 4201" d="M138,27.808l.138-.223a2.674,2.674,0,0,1,1.594-1.275,4.9,4.9,0,0,1,.6-.09c.1,0,.147.03.144.138s0,.211,0,.316-.054.141-.15.15a2.334,2.334,0,0,0-2.271,1.958,4.954,4.954,0,0,0-.09.944v2.051c0,.132-.036.186-.18.183-.364,0-.361,0-.361-.4V26.551a.5.5,0,0,1,0-.135.134.134,0,0,1,.084-.105,1.9,1.9,0,0,1,.346,0c.117,0,.114.108.111.2v1.3Z" transform="translate(831.255 39.237)" fill="#131722"/>
        <path id="Path_4202" data-name="Path 4202" d="M23.153,52.248a.529.529,0,0,1-.406-.168c-.821-.821-1.642-1.645-2.466-2.463a.544.544,0,0,1-.162-.562.514.514,0,0,1,.418-.373.535.535,0,0,1,.511.192l1.79,1.8c.235.235.478.463.7.71a.52.52,0,0,1-.253.854A.935.935,0,0,1,23.153,52.248Z" transform="translate(913.295 23.552)" fill="#eb2053"/>
      </g>
    </g>
  </g>
</svg>
